<svg width="20" height="20" viewBox="0 0 20 20" fill="none" xmlns="http://www.w3.org/2000/svg">
<path fill-rule="evenodd" clip-rule="evenodd" d="M18.4354 17.3951L14.146 12.9395C15.2489 11.6301 15.8532 9.98262 15.8532 8.26749C15.8532 4.26026 12.5888 1 8.57659 1C4.56433 1 1.29999 4.26026 1.29999 8.26749C1.29999 12.2747 4.56433 15.535 8.57659 15.535C10.0828 15.535 11.5182 15.0812 12.7454 14.2199L17.0674 18.7093C17.2481 18.8967 17.4911 19 17.7514 19C17.9979 19 18.2317 18.9062 18.4092 18.7355C18.7863 18.3731 18.7983 17.7721 18.4354 17.3951ZM8.57659 2.89587C11.5423 2.89587 13.9549 5.30552 13.9549 8.26749C13.9549 11.2295 11.5423 13.6391 8.57659 13.6391C5.6109 13.6391 3.19823 11.2295 3.19823 8.26749C3.19823 5.30552 5.6109 2.89587 8.57659 2.89587Z" fill="#BCBFC2"/>
</svg>
